<svg width="372" height="200" viewBox="0 0 372 200" fill="none" xmlns="http://www.w3.org/2000/svg">
<rect x="5" y="5" width="362" height="190" fill="black"/>
<rect x="5" y="5" width="362" height="190" stroke="#2F2F2F" stroke-width="10"/>
<path d="M136.085 60.8246H142.059V65.9523H136.085V80.4378H129.835V48.0656H136.085V60.8246ZM101.14 62.2058C101.129 60.0534 101.658 58.1197 102.729 56.4047C103.811 54.6782 105.278 53.3315 107.131 52.3646C108.996 51.3978 111.056 50.9144 113.312 50.9144C115.557 50.9144 117.6 51.3978 119.441 52.3646C121.294 53.3315 122.756 54.6782 123.827 56.4047C124.897 58.1197 125.438 60.0534 125.45 62.2058C125.438 64.3467 124.897 66.2804 123.827 68.0069C122.756 69.7219 121.294 71.0686 119.441 72.047C117.6 73.0138 115.557 73.4972 113.312 73.4972C111.056 73.4972 108.996 73.0081 107.131 72.0297C105.278 71.0513 103.811 69.7046 102.729 67.9896C101.658 66.2631 101.129 64.3352 101.14 62.2058ZM107.235 62.2058C107.223 63.3798 107.482 64.41 108.012 65.2963C108.553 66.1825 109.284 66.8674 110.204 67.3508C111.137 67.8227 112.173 68.0587 113.312 68.0587C114.452 68.0587 115.482 67.8227 116.403 67.3508C117.323 66.8674 118.049 66.1883 118.578 65.3135C119.108 64.4273 119.372 63.3913 119.372 62.2058C119.372 61.0087 119.108 59.9671 118.578 59.0808C118.049 58.1945 117.323 57.5154 116.403 57.0435C115.493 56.5716 114.463 56.3356 113.312 56.3356C112.173 56.3356 111.137 56.5716 110.204 57.0435C109.284 57.5154 108.553 58.1945 108.012 59.0808C107.482 59.9671 107.223 61.0087 107.235 62.2058ZM107.252 77.0193H113.468V86.7051H137.673V91.7293H107.252V77.0193ZM181.491 80.5414H175.275V64.6229H168.006V59.5988H175.275V48.1001H181.491V80.5414ZM143.783 70.5449C146.143 69.7967 148.123 68.709 149.723 67.2818C151.322 65.8545 152.508 64.2316 153.279 62.413C154.062 60.5944 154.459 58.7067 154.47 56.75V56.0767H145.562V51.087H169.664V56.0767H160.807V56.7845C160.807 58.5686 161.175 60.3124 161.912 62.0159C162.66 63.7079 163.799 65.2387 165.33 66.6084C166.873 67.9666 168.772 69.014 171.028 69.7507L167.955 74.6885C165.56 73.9058 163.506 72.7548 161.791 71.2355C160.076 69.7046 158.718 67.9033 157.716 65.8315C156.703 68.122 155.293 70.1075 153.486 71.788C151.691 73.4685 149.521 74.7346 146.977 75.5863L143.783 70.5449ZM152.002 77.7099H158.217V86.7051H182.544V91.7293H152.002V77.7099ZM227.846 74.654H211.047V82.3888H204.728V74.654H187.203V69.7162H227.846V74.654ZM191.399 58.1312C191.399 56.2781 192.066 54.6552 193.402 53.2624C194.737 51.8697 196.619 50.7993 199.047 50.0511C201.476 49.2914 204.29 48.9116 207.49 48.9116C210.69 48.9116 213.498 49.2914 215.915 50.0511C218.344 50.7993 220.226 51.8697 221.561 53.2624C222.896 54.6436 223.564 56.2666 223.564 58.1312C223.564 59.9843 222.896 61.6015 221.561 62.9827C220.226 64.3639 218.344 65.4286 215.915 66.1768C213.498 66.9134 210.69 67.2818 207.49 67.2818C204.29 67.2818 201.47 66.9134 199.03 66.1768C196.601 65.4286 194.72 64.3639 193.384 62.9827C192.061 61.6015 191.399 59.9843 191.399 58.1312ZM192.038 78.4178H198.322V86.6706H223.374V91.7293H192.038V78.4178ZM198.132 58.1312C198.121 59.0175 198.495 59.7772 199.255 60.4102C200.014 61.0318 201.096 61.5037 202.5 61.826C203.916 62.1367 205.579 62.2979 207.49 62.3094C209.412 62.2979 211.075 62.1367 212.48 61.826C213.895 61.5037 214.983 61.0318 215.743 60.4102C216.502 59.7772 216.882 59.0175 216.882 58.1312C216.882 57.2104 216.502 56.4277 215.743 55.7831C214.995 55.1386 213.924 54.6552 212.531 54.3329C211.139 53.9991 209.493 53.8322 207.594 53.8322C205.648 53.8322 203.962 53.9933 202.535 54.3156C201.119 54.6379 200.026 55.1213 199.255 55.7659C198.495 56.4104 198.121 57.1989 198.132 58.1312ZM267.916 80.5414H261.701V64.6229H254.432V59.5988H261.701V48.1001H267.916V80.5414ZM230.209 70.5449C232.569 69.7967 234.548 68.709 236.148 67.2818C237.748 65.8545 238.934 64.2316 239.705 62.413C240.488 60.5944 240.885 58.7067 240.896 56.75V56.0767H231.987V51.087H256.09V56.0767H247.233V56.7845C247.233 58.5686 247.601 60.3124 248.338 62.0159C249.086 63.7079 250.225 65.2387 251.756 66.6084C253.298 67.9666 255.198 69.014 257.454 69.7507L254.38 74.6885C251.986 73.9058 249.932 72.7548 248.217 71.2355C246.502 69.7046 245.144 67.9033 244.142 65.8315C243.129 68.122 241.719 70.1075 239.912 71.788C238.117 73.4685 235.947 74.7346 233.403 75.5863L230.209 70.5449ZM238.427 77.7099H244.643V86.7051H268.969V91.7293H238.427V77.7099Z" fill="#00FF0A"/>
<path d="M136.085 117.769H142.059V122.879H136.085V132.893H129.835V108.031H136.085V117.769ZM100.329 128.939C103.598 128.134 106.406 127.069 108.754 125.745C111.102 124.41 112.95 122.885 114.296 121.17C115.643 119.455 116.483 117.602 116.817 115.61H102.521V110.655H123.619C123.619 114.546 122.814 118.028 121.202 121.101C119.591 124.163 117.237 126.77 114.141 128.922C111.045 131.074 107.264 132.738 102.798 133.912L100.329 128.939ZM106.993 134.568H136.085V151.954H106.993V134.568ZM129.921 147.068V139.592H113.191V147.068H129.921ZM184.581 134.654H144.042V129.664H161.152V123.794H167.333V129.664H184.581V134.654ZM146.114 121.567C149.268 121.176 151.973 120.41 154.229 119.271C156.485 118.131 158.183 116.773 159.322 115.196C160.473 113.619 161.054 111.973 161.066 110.258V108.791H167.402V110.258C167.402 112.031 167.966 113.706 169.094 115.282C170.222 116.859 171.914 118.206 174.17 119.323C176.426 120.427 179.165 121.176 182.388 121.567L179.988 126.436C176.282 125.883 173.071 124.853 170.354 123.345C167.65 121.826 165.589 119.944 164.174 117.7C162.746 119.944 160.674 121.826 157.958 123.345C155.253 124.853 152.048 125.883 148.341 126.436L146.114 121.567ZM148.531 137.814H179.643V152.506H173.41V142.648H148.531V137.814ZM227.846 134.654H211.047V142.389H204.728V134.654H187.203V129.716H227.846V134.654ZM191.399 118.131C191.399 116.278 192.066 114.655 193.402 113.262C194.737 111.87 196.619 110.799 199.047 110.051C201.476 109.291 204.29 108.912 207.49 108.912C210.69 108.912 213.498 109.291 215.915 110.051C218.344 110.799 220.226 111.87 221.561 113.262C222.896 114.644 223.564 116.267 223.564 118.131C223.564 119.984 222.896 121.602 221.561 122.983C220.226 124.364 218.344 125.429 215.915 126.177C213.498 126.913 210.69 127.282 207.49 127.282C204.29 127.282 201.47 126.913 199.03 126.177C196.601 125.429 194.72 124.364 193.384 122.983C192.061 121.602 191.399 119.984 191.399 118.131ZM192.038 138.418H198.322V146.671H223.374V151.729H192.038V138.418ZM198.132 118.131C198.121 119.017 198.495 119.777 199.255 120.41C200.014 121.032 201.096 121.504 202.5 121.826C203.916 122.137 205.579 122.298 207.49 122.309C209.412 122.298 211.075 122.137 212.48 121.826C213.895 121.504 214.983 121.032 215.743 120.41C216.502 119.777 216.882 119.017 216.882 118.131C216.882 117.21 216.502 116.428 215.743 115.783C214.995 115.139 213.924 114.655 212.531 114.333C211.139 113.999 209.493 113.832 207.594 113.832C205.648 113.832 203.962 113.993 202.535 114.316C201.119 114.638 200.026 115.121 199.255 115.766C198.495 116.41 198.121 117.199 198.132 118.131ZM267.916 140.541H261.701V124.623H254.432V119.599H261.701V108.1H267.916V140.541ZM230.209 130.545C232.569 129.797 234.548 128.709 236.148 127.282C237.748 125.855 238.934 124.232 239.705 122.413C240.488 120.594 240.885 118.707 240.896 116.75V116.077H231.987V111.087H256.09V116.077H247.233V116.785C247.233 118.569 247.601 120.312 248.338 122.016C249.086 123.708 250.225 125.239 251.756 126.608C253.298 127.967 255.198 129.014 257.454 129.751L254.38 134.689C251.986 133.906 249.932 132.755 248.217 131.235C246.502 129.705 245.144 127.903 244.142 125.831C243.129 128.122 241.719 130.108 239.912 131.788C238.117 133.468 235.947 134.735 233.403 135.586L230.209 130.545ZM238.427 137.71H244.643V146.705H268.969V151.729H238.427V137.71Z" fill="#FAFF00"/>
</svg>
